PathFileType	4	(X/Y/Z)	C:\Git\powerlifing_model_clean\simulations\Test1\Session1\HC835B_STD_0001\marker_experimental.trc
DataRate	CameraRate	NumFrames	NumMarkers	Units	OrigDataRate	OrigDataStartFrame	OrigNumFrames
240.000000	240.000000	5	54	mm	240.000000	0	337
Frame#	Time	RPSI			LPSI			RASI			LASI			RGT			RTH1			RTH2			RTH3			RTH4			RLK			RMK			RSK1			RSK2			RSK3			RSK4			RLA			RMA			RCAL1			RCAL2			RCAL3			RST			RPT			RTN			RFMB			RSMB			RVMB			RFMH			RSMH			RVMH			RPM			LGT			LTH1			LTH2			LTH3			LTH4			LLK			LMK			LSK1			LSK2			LSK3			LSK4			LLA			LMA			LCAL1			LCAL2			LCAL3			LFMH			LVMH			RHJC			LHJC			RKJC			LKJC			RAJC			LAJC
		X1	Y1	Z1	X2	Y2	Z2	X3	Y3	Z3	X4	Y4	Z4	X5	Y5	Z5	X6	Y6	Z6	X7	Y7	Z7	X8	Y8	Z8	X9	Y9	Z9	X10	Y10	Z10	X11	Y11	Z11	X12	Y12	Z12	X13	Y13	Z13	X14	Y14	Z14	X15	Y15	Z15	X16	Y16	Z16	X17	Y17	Z17	X18	Y18	Z18	X19	Y19	Z19	X20	Y20	Z20	X21	Y21	Z21	X22	Y22	Z22	X23	Y23	Z23	X24	Y24	Z24	X25	Y25	Z25	X26	Y26	Z26	X27	Y27	Z27	X28	Y28	Z28	X29	Y29	Z29	X30	Y30	Z30	X31	Y31	Z31	X32	Y32	Z32	X33	Y33	Z33	X34	Y34	Z34	X35	Y35	Z35	X36	Y36	Z36	X37	Y37	Z37	X38	Y38	Z38	X39	Y39	Z39	X40	Y40	Z40	X41	Y41	Z41	X42	Y42	Z42	X43	Y43	Z43	X44	Y44	Z44	X45	Y45	Z45	X46	Y46	Z46	X47	Y47	Z47	X48	Y48	Z48	X49	Y49	Z49	X50	Y50	Z50	X51	Y51	Z51	X52	Y52	Z52	X53	Y53	Z53	X54	Y54	Z54
1	0.000000	495.868073	1162.186768	-351.591064	387.377228	1159.614014	-347.780518	555.120300	1105.828247	-555.902649	316.132599	1101.561279	-553.048157	637.922974	1024.062134	-447.460968	640.082397	836.379211	-459.107361	627.739075	819.688599	-516.395508	630.417542	753.641846	-474.279724	606.681824	737.834167	-525.757813	609.546326	552.814087	-456.817505	483.509308	538.615540	-446.165771	613.192322	307.103851	-360.396973	615.505188	288.113983	-418.983521	611.612183	249.450653	-371.641602	600.420166	231.825684	-427.848816	605.393188	114.480247	-359.286682	522.315552	124.074310	-403.796417	560.581787	95.180199	-304.779419	529.124023	57.973282	-314.347046	593.778320	58.695724	-308.988190	517.339722	76.059845	-380.369293	619.115173	73.573067	-366.131500	531.202393	95.132965	-438.773560	537.028381	78.097206	-469.347839	586.329712	101.862808	-477.424957	632.317322	47.720181	-410.194122	537.411621	50.643253	-527.300964	592.151428	65.966965	-537.425476	648.254700	42.331673	-490.605804	582.605713	53.336624	-596.815674	244.914017	1013.259277	-441.784515	239.364151	830.822876	-442.060852	242.533234	813.938416	-500.397064	243.481369	746.293152	-455.556335	263.554779	731.419373	-511.588074	265.733521	564.344727	-441.206116	396.869690	553.705505	-442.124023	257.487152	300.021790	-353.960297	251.333405	279.491394	-403.110229	257.488556	244.459671	-367.457520	267.562836	225.881165	-419.570190	259.476440	115.222679	-363.221985	349.354675	123.618088	-400.685303	307.128784	93.640182	-302.241577	275.848969	58.104298	-303.410858	334.097076	56.300007	-307.863190	344.698639	55.299355	-530.640625	229.754929	41.476086	-492.936615	523.885044	1042.042284	-474.618986	351.556528	1038.965472	-472.560678	546.527817	545.714813	-451.491638	331.301605	559.025116	-441.665070	563.854370	119.277279	-381.541550	304.415558	119.420383	-381.953644
2	0.004167	495.866547	1162.181885	-351.605804	387.385590	1159.605835	-347.823822	555.113037	1105.803223	-555.933228	316.141418	1101.521484	-553.079468	637.919678	1024.053955	-447.472168	640.094482	836.387268	-459.131653	627.744934	819.705383	-516.454346	630.422424	753.657043	-474.284790	606.704712	737.844727	-525.769592	609.537476	552.827271	-456.845856	483.508301	538.602112	-446.176727	613.192444	307.121216	-360.425507	615.532043	288.144379	-418.992279	611.635010	249.463104	-371.656891	600.331482	231.772476	-427.861694	605.401062	114.475433	-359.306244	522.295776	124.093468	-403.763580	560.595398	95.217216	-304.760773	529.127075	57.982609	-314.347626	593.767456	58.672440	-308.994385	517.358154	76.070824	-380.365479	619.110291	73.628685	-366.124512	531.212891	95.091568	-438.806244	537.025757	78.114548	-469.355438	586.336365	101.874146	-477.422028	632.312866	47.692276	-410.200012	537.473511	50.590679	-527.331360	592.154602	65.969025	-537.414734	648.296265	42.346096	-490.607849	582.561035	53.315235	-596.822693	244.933731	1013.234009	-441.812866	239.366547	830.813782	-442.100922	242.580627	813.898804	-500.475342	243.496048	746.288818	-455.595520	263.557892	731.413513	-511.616425	265.731873	564.318542	-441.224609	396.896179	553.716858	-442.122559	257.493439	300.006958	-353.960144	251.322922	279.509369	-403.112061	257.482025	244.510208	-367.438873	267.576843	225.903519	-419.587433	259.477997	115.238075	-363.201904	349.361298	123.637596	-400.672485	307.121796	93.642738	-302.243713	275.852600	58.126339	-303.391663	334.089844	56.310402	-307.859161	344.700806	55.306686	-530.643005	229.767578	41.485855	-492.937347	523.884142	1042.029580	-474.641782	351.566257	1038.942100	-472.583990	546.522888	545.714691	-451.511292	331.314026	559.017700	-441.673584	563.848419	119.284451	-381.534912	304.419647	119.437836	-381.937195
3	0.008333	495.853088	1162.172241	-351.636688	387.369446	1159.614746	-347.822693	555.103821	1105.794556	-555.936890	316.175659	1101.495361	-553.120850	637.922852	1024.044678	-447.477386	640.057678	836.367432	-459.148438	627.728271	819.736145	-516.456604	630.414673	753.686584	-474.308258	606.692017	737.830566	-525.778931	609.550842	552.821167	-456.845917	483.498535	538.616699	-446.186188	613.202271	307.127899	-360.433777	615.531982	288.131042	-418.999847	611.623352	249.468826	-371.666931	600.383850	231.807373	-427.873810	605.368713	114.449654	-359.329010	522.324280	124.090103	-403.789459	560.588562	95.200851	-304.765320	529.157471	57.967098	-314.362518	593.765015	58.688225	-308.986237	517.355225	76.074158	-380.351532	619.130371	73.587036	-366.128906	531.202637	95.127884	-438.784882	537.040894	78.089424	-469.382324	586.356262	101.862892	-477.420166	632.300537	47.715942	-410.207916	537.353027	50.679989	-527.317993	592.144653	65.954338	-537.448486	648.256775	42.334862	-490.597504	582.588806	53.313503	-596.836731	244.926971	1013.263489	-441.851990	239.371643	830.809753	-442.139160	242.600006	813.905518	-500.516479	243.493729	746.295471	-455.642761	263.613678	731.363220	-511.649414	265.744873	564.307739	-441.226929	396.922455	553.737122	-442.120575	257.514435	299.986603	-354.007141	251.365341	279.486176	-403.142151	257.498627	244.464828	-367.477417	267.586273	225.874222	-419.602966	259.472198	115.223000	-363.228699	349.372406	123.632576	-400.670929	307.135559	93.668747	-302.246765	275.857025	58.103031	-303.400940	334.088104	56.301910	-307.875366	344.704773	55.300861	-530.625061	229.761642	41.483139	-492.923584	523.874248	1042.037290	-474.647171	351.585037	1038.937175	-472.616547	546.524689	545.718933	-451.516052	331.333664	559.022430	-441.673752	563.846497	119.269878	-381.559235	304.422302	119.427788	-381.949814
4	0.012500	495.858032	1162.161621	-351.638611	387.369354	1159.590942	-347.835022	555.152893	1105.816528	-555.955383	316.170807	1101.436157	-553.152405	637.936035	1024.048462	-447.487823	639.936279	836.459167	-459.252411	627.741516	819.717346	-516.471741	630.114868	753.760437	-474.478729	606.678345	737.769836	-525.819031	609.544800	552.829590	-456.854767	483.494293	538.605896	-446.193359	613.249634	307.182007	-360.461426	615.054260	287.937988	-418.936249	611.506653	249.421829	-371.797363	600.403259	231.829407	-427.859650	605.410767	114.616470	-359.198120	522.092346	124.160477	-403.972595	560.448181	95.458984	-304.710327	528.910522	58.063908	-314.289886	592.835999	58.751232	-308.755890	517.338806	76.094620	-380.387909	618.426025	72.215614	-366.990295	530.288269	94.489403	-438.171844	537.028931	78.099159	-469.370026	586.283325	101.893799	-477.455261	632.294128	47.716515	-410.195374	537.425293	50.637653	-527.333740	592.021240	65.923660	-537.561523	648.249390	42.339725	-490.603394	582.572998	53.333725	-596.815552	244.944931	1013.251587	-441.856903	239.203278	830.941223	-442.242065	242.510269	813.934875	-500.553772	243.473419	746.390015	-455.856659	263.609467	731.404724	-511.693085	265.731445	564.300415	-441.264801	396.884369	553.691467	-442.136292	257.498657	299.984100	-353.766510	251.141602	279.157349	-402.626556	257.187805	244.856598	-367.654816	267.607239	225.762543	-419.800262	259.458344	115.288452	-363.175995	349.469299	123.695549	-400.557678	306.661072	94.657448	-303.137543	275.842712	58.098644	-303.403381	334.101746	56.302280	-307.881012	344.678711	55.271435	-530.642334	229.753754	41.477711	-492.940247	523.931052	1042.031657	-474.660593	351.606331	1038.873068	-472.639427	546.519547	545.717743	-451.524063	331.307907	558.995941	-441.700546	563.751556	119.388474	-381.585358	304.463821	119.492001	-381.866837
5	0.016667	495.730652	1162.167480	-351.651886	387.303223	1159.555176	-347.950897	555.148254	1105.830811	-555.990601	316.160767	1101.475220	-553.208862	637.644958	1024.009155	-447.490204	639.868469	836.445374	-459.226868	627.758667	819.687683	-516.466003	630.079285	753.738647	-474.482513	606.760071	737.787170	-525.856873	609.406372	552.817200	-456.874969	483.666748	538.674316	-446.398651	613.241150	307.181091	-360.481110	615.131287	287.932281	-418.925354	611.496460	249.435211	-371.813354	600.400085	231.788162	-427.864502	605.466003	114.575134	-359.262421	522.081604	124.273659	-404.092926	560.407166	95.434181	-304.765503	528.814392	58.142616	-314.349365	592.844421	58.714340	-308.774628	517.372803	76.179298	-380.529541	618.447693	72.224518	-367.007538	530.439331	94.453522	-438.190125	536.994995	78.126312	-469.413239	586.203247	101.739098	-477.429443	632.290039	47.688065	-410.210449	537.292175	50.741634	-527.291992	591.996338	65.876678	-537.528992	648.228394	42.296505	-490.600830	582.556580	53.352310	-596.845520	245.060913	1013.247009	-441.902802	239.202209	830.916199	-442.279968	242.535797	813.906982	-500.591644	243.507919	746.365173	-455.903229	263.614716	731.410706	-511.745850	265.907318	564.245728	-441.298676	396.949493	553.687439	-442.099274	257.346008	300.151581	-353.751068	251.346619	279.178589	-402.757904	257.230927	244.881134	-367.649506	267.580841	225.756516	-419.769745	259.340576	115.369965	-363.165588	349.404388	123.725601	-400.575653	306.601135	94.745209	-303.168915	275.787567	58.147282	-303.463776	334.095398	56.371841	-307.900177	344.723877	55.325161	-530.693420	229.756531	41.513988	-492.990967	523.911829	1042.033324	-474.715263	351.583500	1038.892608	-472.709416	546.536560	545.745758	-451.636810	331.428406	558.966583	-441.698975	563.773804	119.424397	-381.677673	304.372482	119.547783	-381.870621
